<svg width="1280" height="520" viewBox="0 0 1280 520" fill="none" xmlns="http://www.w3.org/2000/svg" role="img" aria-label="Web Scrape Ethics Check workflow diagram">
<rect width="1280" height="520" rx="28" fill="#f8f5ef"/>
<text x="72" y="82" fill="#111827" font-family="Inter, ui-sans-serif, system-ui" font-size="34" font-weight="800">Web Scrape Ethics Check workflow</text>
<text x="72" y="122" fill="#475569" font-family="Inter, ui-sans-serif, system-ui" font-size="20">Review scraping plans for robots, rate limits, and data-use...</text>
<rect x="82" y="164" width="328" height="116" rx="20" fill="#111827" opacity=".18" stroke="#111827" stroke-width="3"/>
<circle cx="118" cy="198" r="17" fill="#e11d48" opacity=".9"/>
<text x="113" y="205" fill="#f8f5ef" font-family="Inter, ui-sans-serif, system-ui" font-size="18" font-weight="900">1</text>
<text x="148" y="206" fill="#111827" font-family="Inter, ui-sans-serif, system-ui" font-size="21" font-weight="800">Input</text>
<text x="106" y="246" fill="#475569" font-family="Inter, ui-sans-serif, system-ui" font-size="16">text / JSON / CSV</text>
<rect x="480" y="164" width="328" height="116" rx="20" fill="#111827" opacity=".07" stroke="#e11d48" stroke-width="3"/>
<circle cx="516" cy="198" r="17" fill="#e11d48" opacity=".9"/>
<text x="511" y="205" fill="#f8f5ef" font-family="Inter, ui-sans-serif, system-ui" font-size="18" font-weight="900">2</text>
<text x="546" y="206" fill="#111827" font-family="Inter, ui-sans-serif, system-ui" font-size="21" font-weight="800">Reader</text>
<text x="504" y="246" fill="#475569" font-family="Inter, ui-sans-serif, system-ui" font-size="16">normalize records</text>
<rect x="878" y="164" width="328" height="116" rx="20" fill="#111827" opacity=".07" stroke="#111827" stroke-width="3"/>
<circle cx="914" cy="198" r="17" fill="#e11d48" opacity=".9"/>
<text x="909" y="205" fill="#f8f5ef" font-family="Inter, ui-sans-serif, system-ui" font-size="18" font-weight="900">3</text>
<text x="944" y="206" fill="#111827" font-family="Inter, ui-sans-serif, system-ui" font-size="21" font-weight="800">robots-unknown</text>
<text x="902" y="246" fill="#475569" font-family="Inter, ui-sans-serif, system-ui" font-size="16">high</text>
<rect x="82" y="314" width="328" height="116" rx="20" fill="#111827" opacity=".07" stroke="#e11d48" stroke-width="3"/>
<circle cx="118" cy="348" r="17" fill="#e11d48" opacity=".9"/>
<text x="113" y="355" fill="#f8f5ef" font-family="Inter, ui-sans-serif, system-ui" font-size="18" font-weight="900">4</text>
<text x="148" y="356" fill="#111827" font-family="Inter, ui-sans-serif, system-ui" font-size="21" font-weight="800">no-rate-limit</text>
<text x="106" y="396" fill="#475569" font-family="Inter, ui-sans-serif, system-ui" font-size="16">medium</text>
<rect x="480" y="314" width="328" height="116" rx="20" fill="#111827" opacity=".07" stroke="#111827" stroke-width="3"/>
<circle cx="516" cy="348" r="17" fill="#e11d48" opacity=".9"/>
<text x="511" y="355" fill="#f8f5ef" font-family="Inter, ui-sans-serif, system-ui" font-size="18" font-weight="900">5</text>
<text x="546" y="356" fill="#111827" font-family="Inter, ui-sans-serif, system-ui" font-size="21" font-weight="800">personal-data</text>
<text x="504" y="396" fill="#475569" font-family="Inter, ui-sans-serif, system-ui" font-size="16">low</text>
<rect x="878" y="314" width="328" height="116" rx="20" fill="#111827" opacity=".18" stroke="#e11d48" stroke-width="3"/>
<circle cx="914" cy="348" r="17" fill="#e11d48" opacity=".9"/>
<text x="909" y="355" fill="#f8f5ef" font-family="Inter, ui-sans-serif, system-ui" font-size="18" font-weight="900">6</text>
<text x="944" y="356" fill="#111827" font-family="Inter, ui-sans-serif, system-ui" font-size="21" font-weight="800">Report</text>
<text x="902" y="396" fill="#475569" font-family="Inter, ui-sans-serif, system-ui" font-size="16">Markdown or JSON</text>
<path d="M402 222H488" stroke="#e11d48" stroke-width="4" stroke-linecap="round" opacity=".7"/>
<path d="M800 222H886" stroke="#e11d48" stroke-width="4" stroke-linecap="round" opacity=".7"/>
<path d="M1042 274C1042 310, 246 284, 246 320" stroke="#e11d48" stroke-width="4" stroke-linecap="round" fill="none" opacity=".7"/>
<path d="M402 372H488" stroke="#e11d48" stroke-width="4" stroke-linecap="round" opacity=".7"/>
<path d="M800 372H886" stroke="#e11d48" stroke-width="4" stroke-linecap="round" opacity=".7"/>
<path d="M72 460h1136" stroke="#111827" stroke-width="8" stroke-linecap="round" opacity=".56"/>
<text x="72" y="492" fill="#475569" font-family="ui-monospace, SFMono-Regular, Menlo, monospace" font-size="16">DEVELOPER TOOL</text>
</svg>